<?xml version="1.0" encoding="iso-8859-1"?>
<!-- Generator: Adobe Illustrator 19.0.0, SVG Export Plug-In . SVG Version: 6.00 Build 0)  -->
<svg version="1.1" id="Capa_1" xmlns="http://www.w3.org/2000/svg" xmlns:xlink="http://www.w3.org/1999/xlink" x="0px" y="0px"
	 viewBox="0 0 511.987 511.987" style="enable-background:new 0 0 511.987 511.987; fill: white" xml:space="preserve">
<g>
	<g>
		<path d="M277.342,0.008h-42.667c-41.173,0-74.667,33.493-74.667,74.667v213.312c0,6.656,1.152,12.992,2.795,19.136L352.008,109.32
			V74.675C352.008,33.502,318.515,0.008,277.342,0.008z"/>
	</g>
</g>
<g>
	<g>
		<path d="M234.675,362.654h42.667c41.173,0,74.667-33.493,74.667-74.667V171.059L498.376,18.035
			c4.053-4.267,3.925-11.008-0.341-15.083c-4.267-4.075-11.008-3.904-15.083,0.341L13.619,493.96
			c-4.075,4.245-3.925,11.029,0.341,15.083c2.069,1.963,4.715,2.944,7.381,2.944c2.816,0,5.611-1.109,7.701-3.285l121.899-127.445
			c16.832,14.677,38.357,24.064,62.4,24.064h32v85.333h-74.667c-5.888,0-10.667,4.779-10.667,10.667
			c0,5.888,4.779,10.667,10.667,10.667h170.667c5.888,0,10.667-4.779,10.667-10.667c0-5.888-4.779-10.667-10.667-10.667h-74.667
			V405.32h32c52.928,0,96-43.072,96-96V202.654c0-5.888-4.779-10.667-10.667-10.667c-5.888,0-10.667,4.779-10.667,10.667V309.32
			c0,41.173-33.493,74.667-74.667,74.667h-85.333c-18.325,0-34.773-7.019-47.723-18.069l20.843-21.781
			C199.475,355.443,216.094,362.654,234.675,362.654z"/>
	</g>
</g>
<g>
	<g>
		<path d="M138.675,309.32V202.654c0-5.888-4.779-10.667-10.667-10.667c-5.888,0-10.667,4.779-10.667,10.667V309.32
			c0,13.269,2.709,25.899,7.595,37.397l16.768-17.536C139.934,322.824,138.675,316.254,138.675,309.32z"/>
	</g>
</g>
<g>
</g>
<g>
</g>
<g>
</g>
<g>
</g>
<g>
</g>
<g>
</g>
<g>
</g>
<g>
</g>
<g>
</g>
<g>
</g>
<g>
</g>
<g>
</g>
<g>
</g>
<g>
</g>
<g>
</g>
</svg>
