<svg id="Layer_1" enable-background="new 0 0 512 512" height="512" viewBox="0 0 512 512" width="512" xmlns="http://www.w3.org/2000/svg"><path d="m161 507h95v-129l-48-154-47 15z" fill="#6e83b7"/><path d="m208 224 20 154v129h56v-129l20-154-20-5h-56z" fill="#edeff1"/><path d="m294 221.5-10-2.5h-56l-10 2.5v8.5c0 20.953 17.047 38 38 38s38-17.047 38-38z" fill="#d3d3d3"/><path d="m256 182h-28v48c0 15.464 12.536 28 28 28s28-12.536 28-28v-48z" fill="#fcb98b"/><path d="m196 93h-6.95c-5.916 0-10.539 5.108-9.95 10.995l2 20c.511 5.112 4.813 9.005 9.95 9.005h4.95z" fill="#ffd3b3"/><path d="m316 93h6.95c5.916 0 10.539 5.108 9.95 10.995l-2 20c-.511 5.112-4.813 9.005-9.95 9.005h-4.95z" fill="#ffd3b3"/><path d="m161 507h67v-129l-20-154-47 9z" fill="#ffb0aa"/><path d="m351 507h-67v-129l20-154 47 9z" fill="#ffb0aa"/><path d="m340.61 399.354-49.156-78.755-1.624 12.506 43.994 70.485c4.285 6.865 10.248 12.226 17.176 15.735v-9.283c-4.119-2.746-7.686-6.355-10.39-10.688z" fill="#ff7b7b"/><path d="m345 274h6v91h-6z" fill="#ff7b7b"/><path d="m161 274h6v91h-6z" fill="#ff7b7b"/><path d="m256 67h-60v67c0 33.137 26.863 60 60 60s60-26.863 60-60v-67z" fill="#ffd3b3"/><circle cx="234.2" cy="120.094" fill="#6e83b7" r="6"/><circle cx="278.2" cy="120.094" fill="#6e83b7" r="6"/><path d="m262.488 149.463h-13.939l1.458-17.487 5.978.498-.915 10.989h7.418z" fill="#fcb98b"/><g fill="#6e83b7"><path d="m245.876 97.915s-18.589-7.713-34.41 5.933c0 0 18.392-4.746 30.85 1.187z"/><path d="m265 86.127s19.968-2.516 31.612 14.831c0 0-16.479-9.446-30.064-7.023z"/><path d="m303 37c0-17.673-14.327-32-32-32h-31c-27.831 0-50.44 22.297-50.975 50h-.025v1 37h7 10v-17.154c8.988 2.079 21.227 2.154 36 2.154 32.667 0 50-11 50-11s14 1 14 26h10 7v-36c0-11.046-8.954-20-20-20z"/><path d="m306 93v45s-2.333 23.333-18 21-22.833-4-32-4-16.333 1.667-32 4-18-21-18-21v-45h-10v41c0 33.137 26.863 60 60 60s60-26.863 60-60v-41z"/></g><path d="m245.602 175.547-3.17-5.094c13.762-8.567 26.992-.338 27.549.017l-3.213 5.067c-.431-.27-10.665-6.526-21.166.01z" fill="#466089"/><path d="m283 327.957 33.708-2.847c6.536-.644 13.03 1.572 17.809 6.077l6.133 5.805v26.289l-20.393 2.448c-1.491.179-2.936.637-4.259 1.349l-5.308 2.858c-3.65 1.966-7.921 2.438-11.913 1.316l-8.016-2.252z" fill="#ffd3b3"/><path d="m294 373.89-144.774 40.814c-21.694 6.116-43.226-10.185-43.226-32.724v-88.905c0-28.997 20.737-53.845 49.267-59.032l5.733-1.043v120.89l123-32z" fill="#ffb0aa"/><path d="m294 226 3.325-12.468c.448-1.681.675-3.413.675-5.153v-24.564c0-4.107-3.164-7.688-7.269-7.811-4.247-.128-7.731 3.278-7.731 7.497v14.001c0 2.604-2.662 4.361-5.057 3.337l-6.762-2.891-59.256-29.068c-3.403-1.684-7.527-.29-9.211 3.114-1.684 3.403-.29 7.527 3.113 9.211l16.173 8.509c-3.403-1.684-7.527-.29-9.211 3.113s-.29 7.527 3.113 9.211l3.377 1.671c-3.05-1.509-6.887.027-8.571 3.43s-.576 7.385 2.474 8.894l4.016 1.987c-3.05-1.509-6.888.027-8.571 3.43-1.684 3.403-.576 7.385 2.474 8.894l36.33 17.215 21.569 19.441 36-22z" fill="#ffd3b3"/><path d="m258 267 82.61 132.354c6.463 10.354 17.807 16.646 30.012 16.646 19.539 0 35.378-15.839 35.378-35.378v-87.548c0-28.997-20.737-53.845-49.267-59.032l-5.733-1.042v78l-45-75z" fill="#ffb0aa"/><path d="m294 373.89 2 9.11-135 37v-9z" fill="#ff7b7b"/><path d="m228 401.637 56-15.348v-8.289l.178-1.369-56.178 15.675z" fill="#d3d3d3"/></svg>