<svg id="Layer_1" enable-background="new 0 0 512 512" height="512" viewBox="0 0 512 512" width="512" xmlns="http://www.w3.org/2000/svg"><g><g fill="#f2b394"><path d="m256 448.147-15 15c-8.284 8.284-21.716 8.284-30 0-8.284-8.284-8.284-21.716 0-30l15-15"/><path d="m166 358.147-15 15c-8.284 8.284-21.716 8.284-30 0-8.284-8.284-8.284-21.716 0-30l15-15"/><path d="m196 388.147-15 15c-8.284 8.284-21.716 8.284-30 0-8.284-8.284-8.284-21.716 0-30l15-15"/><path d="m196 388.147-15 15c-8.284 8.284-8.284 21.716 0 30 8.284 8.284 21.716 8.284 30 0l15-15"/></g><path d="m391 343.147-135-135h-80l-20-20c-22.22 22.22-57.78 57.78-80 80l195 195c8.28 8.28 21.72 8.28 30 0s8.28-21.72 0-30c8.28 8.28 21.72 8.28 30 0s8.28-21.72 0-30c8.28 8.28 21.72 8.28 30 0s8.28-21.72 0-30c8.28 8.28 21.72 8.28 30 0s8.28-21.72 0-30z" fill="#ffdcd5"/><path d="m336 208.148h-60l-45 45c-8.284 8.284-8.284 21.716 0 30 8.284 8.284 21.716 8.284 30 0l35-35 80 80 60-60c-22.222-22.222-57.778-57.778-80-80z" fill="#f2b394"/><path d="m176 168.148-36-36-120 120 36 36s14.444-14.444 20-20l80-80c5.555-5.556 20-20 20-20z" fill="#fff"/><path d="m56 48.147h-46v194.001l10 10 120-120z" fill="#a7bdcd"/><path d="m336 168.148s14.444 14.444 20 20c22.222 22.222 57.778 57.778 80 80 5.556 5.556 20 20 20 20l36-36-120-120z" fill="#fff"/><path d="m502 48.147h-46l-84 84.001 120 120 10-10z" fill="#a7bdcd"/><g fill="#6d92ac"><path d="m502 38.147h-46c-2.652 0-5.196 1.054-7.071 2.929l-120 120c-3.905 3.905-3.905 10.237 0 14.143l12.929 12.929-10 10h-151.716l-10-10 12.929-12.929c3.905-3.905 3.905-10.237 0-14.143l-120-120c-1.875-1.875-4.419-2.929-7.071-2.929h-46c-5.523 0-10 4.477-10 10v194c0 2.652 1.054 5.196 2.929 7.071l46 46c1.953 1.953 4.512 2.929 7.071 2.929s5.119-.976 7.071-2.929l12.929-12.928 45.857 45.857-7.929 7.929c-12.17 12.17-12.17 31.972 0 44.143 5.788 5.788 13.302 8.817 20.9 9.1.283 7.598 3.312 15.112 9.1 20.9s13.302 8.817 20.9 9.1c.283 7.598 3.312 15.112 9.1 20.9s13.302 8.817 20.9 9.1c.283 7.598 3.312 15.112 9.1 20.9 6.085 6.085 14.078 9.127 22.071 9.127s15.986-3.042 22.071-9.127l7.93-7.929 7.929 7.929c6.085 6.085 14.078 9.127 22.071 9.127s15.986-3.042 22.071-9.127c5.788-5.788 8.817-13.302 9.1-20.9 7.598-.283 15.112-3.312 20.9-9.1 5.618-5.619 8.824-13.003 9.113-20.901 7.594-.286 15.102-3.315 20.887-9.099 5.618-5.619 8.824-13.003 9.113-20.901 7.594-.286 15.102-3.315 20.887-9.099 12.17-12.17 12.17-31.972 0-44.143l-7.929-7.929 45.858-45.857 12.929 12.929c1.953 1.953 4.512 2.929 7.071 2.929s5.119-.976 7.071-2.929l46-46c1.875-1.875 2.929-4.419 2.929-7.071v-194c0-5.523-4.477-10.001-10-10.001zm-41.858 20h31.858v179.857l-105.858-105.857zm-408.284 0 74 74-105.858 105.858v-179.858zm4.142 215.858-21.858-21.858 105.858-105.857 21.858 21.858-12.924 12.924c-.002.002-.003.003-.005.005s-.003.003-.005.005l-79.99 79.99c-.002.002-.003.003-.005.005s-.003.003-.005.005zm72.071 76.214 7.929-7.929 15.857 15.857-7.929 7.929c-4.371 4.372-11.485 4.372-15.857 0-4.372-4.371-4.372-11.486 0-15.857zm30 30 7.929-7.929 15.857 15.857-7.929 7.929c-2.118 2.118-4.934 3.284-7.929 3.284s-5.811-1.166-7.929-3.284c-4.371-4.371-4.371-11.486.001-15.857zm30 30 7.929-7.929 15.857 15.857-7.929 7.929c-2.118 2.118-4.934 3.284-7.929 3.284s-5.811-1.166-7.929-3.284c-4.371-4.371-4.371-11.486.001-15.857zm45.858 45.857c-2.118 2.118-4.934 3.284-7.929 3.284s-5.811-1.166-7.929-3.284c-4.372-4.372-4.372-11.486 0-15.857l7.929-7.929 15.857 15.857zm150-90c-4.371 4.372-11.486 4.372-15.857 0l-55-55c-3.905-3.905-10.237-3.905-14.143 0-3.905 3.905-3.905 10.237 0 14.143l55 55c2.118 2.118 3.284 4.934 3.284 7.929s-1.166 5.811-3.284 7.929c-4.371 4.372-11.486 4.372-15.857 0l-55-55c-3.905-3.904-10.237-3.904-14.143 0-3.905 3.905-3.905 10.237 0 14.143l55 55c2.118 2.118 3.284 4.934 3.284 7.929s-1.166 5.811-3.284 7.929c-4.371 4.372-11.486 4.372-15.857 0l-55-55c-3.905-3.904-10.237-3.904-14.143 0-3.905 3.905-3.905 10.237 0 14.143l55 55c4.372 4.372 4.372 11.485 0 15.857s-11.485 4.372-15.857 0l-187.929-187.931 65.857-65.857 12.929 12.929c1.875 1.875 4.419 2.929 7.071 2.929h75.857l-27.929 27.929c-12.17 12.17-12.17 31.972 0 44.143 12.171 12.17 31.972 12.17 44.143 0l27.929-27.93 72.928 72.928s0 .001.001.001c0 0 0 0 .001.001l14.999 14.999c4.372 4.371 4.372 11.486 0 15.857zm-7.929-52.071-72.929-72.929c-3.905-3.905-10.237-3.905-14.143 0l-35 35c-4.371 4.372-11.486 4.372-15.857 0-4.372-4.372-4.372-11.486 0-15.857l42.071-42.071h55.858c2.652 0 5.196-1.054 7.071-2.929l12.929-12.929 65.857 65.857zm80-40-12.924-12.924c-.002-.002-.003-.003-.005-.005s-.003-.003-.005-.005l-79.99-79.99c-.002-.002-.003-.003-.005-.005s-.003-.003-.005-.005l-12.924-12.924 21.858-21.857 105.858 105.858z"/><path d="m236 132.651c-5.523 0-10 4.477-10 10s4.477 10 10 10h10v8.99c0 5.523 4.477 10 10 10s10-4.477 10-10v-8.99h10c5.523 0 10-4.477 10-10v-40c0-5.523-4.477-10-10-10h-30v-20h30c5.523 0 10-4.477 10-10s-4.477-10-10-10h-10v-9.997c0-5.523-4.477-10-10-10s-10 4.477-10 10v9.997h-10c-5.523 0-10 4.477-10 10v40c0 5.523 4.477 10 10 10h30v20z"/></g></g></svg>