<svg id="Layer_1" enable-background="new 0 0 512 512" height="512" viewBox="0 0 512 512" width="512" xmlns="http://www.w3.org/2000/svg"><g><path d="m413.75 139.521v50c0 4.14-3.36 7.5-7.5 7.5h-58.74c-4.14 0-7.5-3.36-7.5-7.5v-50c0-4.15 3.36-7.5 7.5-7.5h58.74c4.14 0 7.5 3.35 7.5 7.5z" fill="#555760"/><g><path d="m35.802 132.016h-28.302c-4.142 0-7.5 3.357-7.5 7.5v50c0 4.143 3.358 7.5 7.5 7.5h28.302c4.142 0 7.5-3.357 7.5-7.5v-50c0-4.142-3.358-7.5-7.5-7.5z" fill="#555760"/><path d="m512 139.521v50c0 4.14-3.36 7.5-7.5 7.5h-28.3c-4.14 0-7.5-3.36-7.5-7.5v-50c0-4.15 3.36-7.5 7.5-7.5h28.3c4.14 0 7.5 3.35 7.5 7.5z" fill="#555760"/><g fill="#36383f"><path d="m512 165.251v24.27c0 4.14-3.36 7.5-7.5 7.5h-28.3c-4.14 0-7.5-3.36-7.5-7.5v-24.27c0 4.14 3.36 7.5 7.5 7.5h28.3c4.14 0 7.5-3.36 7.5-7.5z"/><path d="m43.3 165.246v24.27c0 4.14-3.36 7.5-7.5 7.5h-28.3c-4.14 0-7.5-3.36-7.5-7.5v-24.27c0 4.14 3.36 7.5 7.5 7.5h28.3c4.14 0 7.5-3.36 7.5-7.5z"/><path d="m413.75 172.751v16.77c0 4.14-3.36 7.5-7.5 7.5h-58.74c-4.14 0-7.5-3.36-7.5-7.5v-16.77z"/></g></g><g><path d="m68.28 99.721v129.59c0 5.52-2.24 10.51-5.86 14.13-3.61 3.62-8.61 5.85-14.13 5.85-3.64 0-7.05-.97-9.99-2.68-5.98-3.44-10-9.9-10-17.3v-129.59c0-7.4 4.02-13.86 10-17.3 2.94-1.71 6.35-2.68 9.99-2.68 11.04 0 19.99 8.94 19.99 19.98z" fill="#52deff"/><path d="m68.28 99.721v129.59c0 5.52-2.24 10.51-5.86 14.13-3.61 3.62-8.61 5.85-14.13 5.85-3.64 0-7.05-.97-9.99-2.68 1.52-.87 2.91-1.94 4.14-3.17 3.61-3.62 5.85-8.61 5.85-14.13v-129.59c0-7.4-4.02-13.85-9.99-17.3 2.94-1.71 6.35-2.68 9.99-2.68 11.04 0 19.99 8.94 19.99 19.98z" fill="#55baff"/><path d="m483.75 99.719v129.59c0 5.52-2.24 10.51-5.86 14.13-3.61 3.62-8.61 5.85-14.13 5.85-3.64 0-7.05-.97-9.99-2.68-5.98-3.44-10-9.9-10-17.3v-129.59c0-7.4 4.02-13.86 10-17.3 2.94-1.71 6.35-2.68 9.99-2.68 11.04 0 19.99 8.94 19.99 19.98z" fill="#52deff"/><path d="m483.75 99.719v129.59c0 5.52-2.24 10.51-5.86 14.13-3.61 3.62-8.61 5.85-14.13 5.85-3.64 0-7.05-.97-9.99-2.68 1.52-.87 2.91-1.94 4.14-3.17 3.61-3.62 5.85-8.61 5.85-14.13v-129.59c0-7.4-4.02-13.85-9.99-17.3 2.94-1.71 6.35-2.68 9.99-2.68 11.04 0 19.99 8.94 19.99 19.98z" fill="#55baff"/></g><path d="m355.01 138.861v50.66c0 1.65-.55 3.26-1.56 4.57l-39.22 50.9 11.66 122.03c.2 2.1-.5 4.19-1.92 5.76-1.42 1.56-3.43 2.45-5.55 2.45h-124.84c-2.12 0-4.13-.89-5.55-2.45-1.42-1.57-2.12-3.66-1.92-5.76l2.13-22.26.38-4 9.03-94.59-37.69-29.1c-1.84-1.42-2.92-3.61-2.92-5.93v-101.17c0-4.14 3.36-7.5 7.5-7.5h154.06c20.07 0 36.41 16.32 36.41 36.39z" fill="#ffd3c0"/><path d="m355.01 138.861v50.66c0 1.65-.55 3.26-1.56 4.57l-39.22 50.9 11.66 122.03c.2 2.1-.5 4.19-1.92 5.76-1.42 1.56-3.43 2.45-5.55 2.45h-124.84c-2.12 0-4.13-.89-5.55-2.45-1.42-1.57-2.12-3.66-1.92-5.76l2.13-22.26.38-4h102.8c2.12 0 4.13-.89 5.55-2.45 1.42-1.57 2.12-3.66 1.92-5.76l-7.66-88.03 43.22-56.9c1.01-1.31 1.56-2.92 1.56-4.58v-50.65c0-12.39-12.22-23.35-21.71-29.92h4.3c20.07 0 36.41 16.32 36.41 36.39z" fill="#ffb9a1"/><path d="m313.9 139.521v27c0 1.45-.42 2.88-1.22 4.09l-1.4 2.14-13.61 20.86c-1.38 2.13-3.75 3.41-6.28 3.41h-185.64c-4.14 0-7.5-3.36-7.5-7.5v-50c0-2.01.8-3.93 2.23-5.34 1.42-1.41 3.37-2.19 5.36-2.16h200.64c4.11.04 7.42 3.39 7.42 7.5z" fill="#555760"/><path d="m98.25 172.751h213.03l-13.61 20.86c-1.38 2.13-3.75 3.41-6.28 3.41h-185.64c-4.14 0-7.5-3.36-7.5-7.5z" fill="#36383f"/><g><path d="m113.25 74.721v179.59c0 12.4-10.08 22.48-22.48 22.48-4.09 0-7.93-1.1-11.24-3.03-6.72-3.88-11.25-11.14-11.25-19.45v-179.59c0-8.31 4.53-15.57 11.25-19.45 3.31-1.93 7.15-3.03 11.24-3.03 12.4 0 22.48 10.08 22.48 22.48z" fill="#ff455c"/><path d="m113.25 74.721v179.59c0 12.4-10.08 22.48-22.48 22.48-4.09 0-7.93-1.1-11.24-3.03 6.71-3.88 11.24-11.15 11.24-19.45v-179.59c0-8.3-4.53-15.57-11.24-19.45 3.31-1.93 7.15-3.03 11.24-3.03 12.4 0 22.48 10.08 22.48 22.48z" fill="#e51c5f"/></g><g><path d="m443.72 74.719v179.59c0 12.4-10.08 22.48-22.48 22.48-4.09 0-7.93-1.1-11.24-3.03-6.72-3.88-11.25-11.14-11.25-19.45v-179.59c0-8.31 4.53-15.57 11.25-19.45 3.31-1.93 7.15-3.03 11.24-3.03 12.4 0 22.48 10.08 22.48 22.48z" fill="#ff455c"/><path d="m443.72 74.719v179.59c0 12.4-10.08 22.48-22.48 22.48-4.09 0-7.93-1.1-11.24-3.03 6.71-3.88 11.24-11.15 11.24-19.45v-179.59c0-8.3-4.53-15.57-11.24-19.45 3.31-1.93 7.15-3.03 11.24-3.03 12.4 0 22.48 10.08 22.48 22.48z" fill="#e51c5f"/></g><path d="m176.651 82.816c-10.829 0-19.607 8.778-19.607 19.607v43.217c0 10.829 8.778 19.607 19.607 19.607 10.829 0 19.607-8.778 19.607-19.607v-43.217c0-10.828-8.779-19.607-19.607-19.607z" fill="#ffd3c0"/><path d="m215.864 82.816c-10.829 0-19.607 8.778-19.607 19.607v43.217c0 10.829 8.778 19.607 19.607 19.607 10.829 0 19.607-8.778 19.607-19.607v-43.217c0-10.828-8.778-19.607-19.607-19.607z" fill="#ffb9a1"/><path d="m255.078 82.816c-10.829 0-19.607 8.778-19.607 19.607v43.217c0 10.829 8.778 19.607 19.607 19.607 10.829 0 19.607-8.778 19.607-19.607v-43.217c0-10.828-8.778-19.607-19.607-19.607z" fill="#ffd3c0"/><path d="m294.292 82.816c-10.829 0-19.607 8.778-19.607 19.607v43.217c0 10.829 8.778 19.607 19.607 19.607 10.829 0 19.607-8.778 19.607-19.607v-43.217c-.001-10.828-8.779-19.607-19.607-19.607z" fill="#ffb9a1"/><path d="m357.12 457.241c-1.43 1.6-3.47 2.52-5.61 2.52h-191.02c-2.14 0-4.18-.92-5.61-2.52-1.42-1.6-2.09-3.73-1.84-5.86l2.09-17.62 7.92-66.91c.44-3.77 3.64-6.62 7.45-6.62h171c3.81 0 7.01 2.85 7.45 6.62l10.01 84.53c.25 2.13-.42 4.26-1.84 5.86z" fill="#eef6ff"/><path d="m357.12 457.241c-1.43 1.6-3.47 2.52-5.61 2.52h-191.02c-2.14 0-4.18-.92-5.61-2.52-1.42-1.6-2.09-3.73-1.84-5.86l2.09-17.62h166.41c2.14 0 4.18-.92 5.6-2.52 1.43-1.6 2.09-3.73 1.84-5.86l-6.61-58.53c-.45-3.77-3.65-6.62-7.45-6.62h26.58c3.81 0 7.01 2.85 7.45 6.62l10.01 84.53c.25 2.13-.42 4.26-1.84 5.86z" fill="#dae6ef"/></g></svg>