<svg version="1" xmlns="http://www.w3.org/2000/svg" width="349.333" height="349.333" viewBox="0 0 262.000000 262.000000"><path d="M132.2 4.9c-.8.4-2.7 6.8-4.3 14.2-1.6 7.4-3.2 14.2-3.5 15.2-.5 1.6.1 1.8 7.2 1.5l7.8-.3 2.9-14.3c1.6-7.9 2.6-15 2.3-15.8-.6-1.6-10.1-2-12.4-.5zM94.6 45.2c-2 7.7.3 6.6-26.7 12.8-13.5 3.1-25.3 5.9-26.3 6.3-1.4.5-1.6 1.6-1.4 5.4.3 5.1.7 5.3 6.2 3.9l2.5-.6.3 10.7.3 10.8h164l.3-10.6.3-10.7 3.4.8c2.1.5 3.8.3 4.4-.3 1.3-1.3 1.5-8.3.3-9.1-.4-.2-11.8-3-25.2-6.1-13.5-3.1-25.2-5.8-26.1-6.1-1-.3-1.9-2-2.3-4.4l-.6-4h-36.5c-28.4 0-36.6.3-36.9 1.2zM50 103.5c-2.4 2.9.2 39.6 5.5 78.6 1.8 13.1 4.3 28.6 5.1 31.1.3 1.1 10.4 6.7 25.7 14.5 20.8 10.5 26.9 14.1 34.9 20.5 5.3 4.3 10.1 7.8 10.6 7.8.6 0 5.2-3.4 10.3-7.6 7.9-6.4 13.3-9.6 35-20.5 16.2-8.1 25.9-13.5 26.3-14.6 1.4-4.4 6.6-38.3 8.2-52.8 1-9.5 1.8-24.6 1.8-37l.1-21-81.1-.3c-72-.2-81.3 0-82.4 1.3z"/></svg>